/vscmnt/brussel_pixiu_data/_data_brussel/112/vsc11236/PredSimResults/SUBJ11mtu3D/weighted-expIG/worker_01.mot
version=1
nRows=5
nColumns=50
inDegrees=yes
endheader
                time	         pelvis_tilt	         pelvis_list	     pelvis_rotation	           pelvis_tx	           pelvis_ty	           pelvis_tz	       hip_flexion_r	     hip_adduction_r	      hip_rotation_r	        knee_angle_r	       ankle_angle_r	         mtp_angle_r	       hip_flexion_l	     hip_adduction_l	      hip_rotation_l	        knee_angle_l	       ankle_angle_l	         mtp_angle_l	    lumbar_extension	      lumbar_bending	     lumbar_rotation	 ercspn_r/activation	 intobl_r/activation	 extobl_r/activation	    abd_r/activation	    add_r/activation	hamstrings_r/activation	bifemsh_r/activation	glut_max_r/activation	iliopsoas_r/activation	rect_fem_r/activation	  vasti_r/activation	gastroc_r/activation	 soleus_r/activation	tib_ant_r/activation	 ercspn_l/activation	 intobl_l/activation	 extobl_l/activation	    abd_l/activation	    add_l/activation	hamstrings_l/activation	bifemsh_l/activation	glut_max_l/activation	iliopsoas_l/activation	rect_fem_l/activation	  vasti_l/activation	gastroc_l/activation	 soleus_l/activation	tib_ant_l/activation	
          1.37553258	         -6.14902553	         -4.71852835	          8.17515764	          1.51308583	          0.93706869	         -0.01625567	         31.89274471	          1.16304810	         -4.53847082	         -5.12604367	          5.31252452	          0.23374461	        -13.12911181	         -5.38178155	          3.63276816	         -8.39232623	         11.48302166	         29.58348705	         -4.20778196	          3.34490587	         -2.52086820	          0.08130854	          0.11813130	          0.02283327	          0.01215379	          0.12276848	          0.04332677	          0.20820128	          0.05489731	          0.07878090	          0.00999999	          0.00999999	          0.02283327	          0.00999999	          0.29108480	          0.06248961	          0.00999999	          0.00999999	          0.04241256	          0.02574111	          0.02067167	          0.11301088	          0.04241256	          0.43316501	          0.00999999	          0.01000001	          0.31319610	          0.24450219	          0.00999999	
          1.38928790	         -6.25193618	         -4.59020943	          8.18038840	          1.53176894	          0.93518891	         -0.01557129	         31.76224488	          1.21238886	         -4.56872632	         -6.62479279	          4.91527221	          0.18881365	        -13.20616251	         -5.31876693	          3.23108719	        -10.10282441	         10.76313480	         31.73457084	         -3.89211141	          3.65116681	         -2.73114093	          0.06614454	          0.11117695	          0.01857488	          0.03844268	          0.09987223	          0.05431929	          0.16937186	          0.08157119	          0.06408831	          0.00999999	          0.00999999	          0.01857488	          0.01229254	          0.32246509	          0.07747472	          0.00999999	          0.00999999	          0.03450265	          0.02687671	          0.02043586	          0.09193442	          0.03450265	          0.41647703	          0.00999999	          0.02283327	          0.26922997	          0.22056665	          0.00999999	
          1.40304323	         -6.33160833	         -4.45822374	          8.13366840	          1.55062893	          0.93378446	         -0.01478400	         31.47682209	          1.25960996	         -4.61627744	         -7.89470904	          4.33431350	          0.17954564	        -13.07314473	         -5.24414786	          2.80341871	        -12.21679315	          9.86526430	         33.92432596	         -3.58683799	          3.96368500	         -2.91333738	          0.07885104	          0.09044252	          0.01511067	          0.10843461	          0.12813880	          0.05134637	          0.13778411	          0.10353634	          0.05213588	          0.00999999	          0.00999999	          0.01511067	          0.00999999	          0.36450248	          0.11001578	          0.00999999	          0.00999999	          0.02806792	          0.02897514	          0.02094588	          0.07478870	          0.02806792	          0.39911861	          0.01229254	          0.01857488	          0.21901873	          0.17943110	          0.00999999	
          1.41679855	         -6.38714822	         -4.32180964	          8.03875448	          1.56937356	          0.93306047	         -0.01390332	         31.13733405	          1.31589159	         -4.67772524	         -9.08721071	          3.71850768	          0.13691847	        -12.63055029	         -5.15482390	          2.35625483	        -14.87083984	          8.78563952	         36.04184157	         -3.31789777	          4.28188218	         -3.06366343	          0.08409672	          0.07357504	          0.01229254	          0.14580986	          0.15757011	          0.04607804	          0.11208745	          0.12646530	          0.04241257	          0.00999999	          0.02981093	          0.01229254	          0.00999999	          0.39474500	          0.14269549	          0.00999999	          0.00999999	          0.02283327	          0.05236637	          0.01703948	          0.06084065	          0.02283327	          0.37141331	          0.00999999	          0.01511067	          0.17817187	          0.14596730	          0.00999999	
          1.43055388	         -6.41693239	         -4.17870205	          7.89871920	          1.58785500	          0.93308575	         -0.01295583	         30.76092679	          1.37772792	         -4.74461550	        -10.28133851	          3.32721742	          0.10214030	        -11.82385667	         -5.05032858	          1.88521469	        -18.13181466	          7.51998143	         37.90372997	         -3.09257963	          4.60298037	         -3.17822863	          0.08371211	          0.05985334	          0.00999999	          0.15584888	          0.14666002	          0.04710929	          0.09118321	          0.12366959	          0.03450265	          0.00999999	          0.07487218	          0.00999999	          0.00999999	          0.41203804	          0.15286082	          0.00999999	          0.00999999	          0.01857488	          0.06999655	          0.02283327	          0.04949390	          0.01857488	          0.32498049	          0.00999999	          0.01229254	          0.14494292	          0.11874448	          0.00999999	
